<mxfile host="app.diagrams.net" agent="Mozilla/5.0 (Windows NT 10.0; Win64; x64) AppleWebKit/537.36 (KHTML, like Gecko) Chrome/129.0.0.0 Safari/537.36" version="24.7.16">
  <diagram name="Page-1" id="c7558073-3199-34d8-9f00-42111426c3f3">
    <mxGraphModel dx="1050" dy="569" grid="1" gridSize="10" guides="1" tooltips="1" connect="1" arrows="1" fold="1" page="1" pageScale="1" pageWidth="826" pageHeight="1169" background="none" math="0" shadow="0">
      <root>
        <mxCell id="0" />
        <mxCell id="1" parent="0" />
        <mxCell id="h0RMpbU5rQ8oFSzIxfaf-103" value="" style="edgeStyle=orthogonalEdgeStyle;rounded=0;orthogonalLoop=1;jettySize=auto;html=1;entryX=0.5;entryY=0;entryDx=0;entryDy=0;" edge="1" parent="1" source="h0RMpbU5rQ8oFSzIxfaf-96" target="h0RMpbU5rQ8oFSzIxfaf-97">
          <mxGeometry relative="1" as="geometry">
            <mxPoint x="120" y="140" as="targetPoint" />
          </mxGeometry>
        </mxCell>
        <mxCell id="h0RMpbU5rQ8oFSzIxfaf-107" style="edgeStyle=orthogonalEdgeStyle;rounded=0;orthogonalLoop=1;jettySize=auto;html=1;exitX=0.5;exitY=1;exitDx=0;exitDy=0;entryX=0.5;entryY=0;entryDx=0;entryDy=0;" edge="1" parent="1" source="h0RMpbU5rQ8oFSzIxfaf-96" target="h0RMpbU5rQ8oFSzIxfaf-98">
          <mxGeometry relative="1" as="geometry" />
        </mxCell>
        <mxCell id="h0RMpbU5rQ8oFSzIxfaf-96" value="&lt;font style=&quot;font-size: 30px;&quot;&gt;Quản lý dân cư và thu phí&lt;/font&gt;" style="rounded=0;whiteSpace=wrap;html=1;fillColor=#fff2cc;strokeColor=#d6b656;" vertex="1" parent="1">
          <mxGeometry x="280" y="80" width="240" height="120" as="geometry" />
        </mxCell>
        <mxCell id="h0RMpbU5rQ8oFSzIxfaf-97" value="&lt;font style=&quot;font-size: 24px;&quot;&gt;1. Lập danh sách&lt;/font&gt;" style="rounded=0;whiteSpace=wrap;html=1;fillColor=#dae8fc;strokeColor=#6c8ebf;" vertex="1" parent="1">
          <mxGeometry x="120" y="320" width="160" height="80" as="geometry" />
        </mxCell>
        <mxCell id="h0RMpbU5rQ8oFSzIxfaf-98" value="&lt;font style=&quot;font-size: 24px;&quot;&gt;2. Thống kê, tổng hợp&lt;/font&gt;" style="rounded=0;whiteSpace=wrap;html=1;fillColor=#dae8fc;strokeColor=#6c8ebf;" vertex="1" parent="1">
          <mxGeometry x="320" y="320" width="160" height="80" as="geometry" />
        </mxCell>
        <mxCell id="h0RMpbU5rQ8oFSzIxfaf-99" value="&lt;font style=&quot;font-size: 24px;&quot;&gt;3. Tra cứu thông tin&lt;/font&gt;" style="rounded=0;whiteSpace=wrap;html=1;fillColor=#dae8fc;strokeColor=#6c8ebf;" vertex="1" parent="1">
          <mxGeometry x="520" y="320" width="170" height="80" as="geometry" />
        </mxCell>
        <mxCell id="h0RMpbU5rQ8oFSzIxfaf-104" style="edgeStyle=orthogonalEdgeStyle;rounded=0;orthogonalLoop=1;jettySize=auto;html=1;exitX=0.5;exitY=1;exitDx=0;exitDy=0;entryX=0.464;entryY=-0.023;entryDx=0;entryDy=0;entryPerimeter=0;" edge="1" parent="1" source="h0RMpbU5rQ8oFSzIxfaf-96" target="h0RMpbU5rQ8oFSzIxfaf-99">
          <mxGeometry relative="1" as="geometry">
            <Array as="points">
              <mxPoint x="400" y="260" />
              <mxPoint x="599" y="260" />
            </Array>
          </mxGeometry>
        </mxCell>
      </root>
    </mxGraphModel>
  </diagram>
</mxfile>
